<svg xmlns="http://www.w3.org/2000/svg" xmlns:xlink="http://www.w3.org/1999/xlink" width="50" zoomAndPan="magnify" viewBox="0 0 37.5 37.499999" height="50" preserveAspectRatio="xMidYMid meet" version="1.0"><defs><clipPath id="af4f7ede5c"><path d="M 1.148438 1.109375 L 35.933594 1.109375 L 35.933594 35.894531 L 1.148438 35.894531 Z M 1.148438 1.109375 " clip-rule="nonzero"/></clipPath></defs><g clip-path="url(#af4f7ede5c)"><path fill="#198754" d="M 18.5 1.109375 C 17.933594 1.109375 17.367188 1.136719 16.800781 1.195312 C 16.234375 1.25 15.671875 1.332031 15.117188 1.445312 C 14.558594 1.554688 14.007812 1.691406 13.464844 1.855469 C 12.921875 2.023438 12.386719 2.214844 11.859375 2.429688 C 11.335938 2.648438 10.824219 2.890625 10.320312 3.160156 C 9.820312 3.425781 9.332031 3.71875 8.859375 4.035156 C 8.386719 4.351562 7.933594 4.6875 7.492188 5.050781 C 7.054688 5.410156 6.632812 5.789062 6.230469 6.191406 C 5.828125 6.59375 5.449219 7.015625 5.089844 7.453125 C 4.726562 7.894531 4.390625 8.351562 4.074219 8.820312 C 3.757812 9.292969 3.464844 9.78125 3.199219 10.28125 C 2.929688 10.785156 2.6875 11.296875 2.46875 11.820312 C 2.253906 12.347656 2.0625 12.882812 1.894531 13.425781 C 1.730469 13.96875 1.59375 14.519531 1.484375 15.078125 C 1.371094 15.636719 1.289062 16.195312 1.234375 16.761719 C 1.175781 17.328125 1.148438 17.894531 1.148438 18.460938 C 1.148438 19.03125 1.175781 19.597656 1.234375 20.164062 C 1.289062 20.730469 1.371094 21.289062 1.484375 21.847656 C 1.59375 22.40625 1.730469 22.957031 1.894531 23.5 C 2.0625 24.042969 2.253906 24.578125 2.46875 25.101562 C 2.6875 25.628906 2.929688 26.140625 3.199219 26.644531 C 3.464844 27.144531 3.757812 27.632812 4.074219 28.101562 C 4.390625 28.574219 4.726562 29.03125 5.089844 29.472656 C 5.449219 29.910156 5.828125 30.332031 6.230469 30.734375 C 6.632812 31.136719 7.054688 31.515625 7.492188 31.875 C 7.933594 32.238281 8.386719 32.574219 8.859375 32.890625 C 9.332031 33.207031 9.820312 33.5 10.320312 33.765625 C 10.824219 34.035156 11.335938 34.277344 11.859375 34.496094 C 12.386719 34.710938 12.921875 34.902344 13.464844 35.066406 C 14.007812 35.234375 14.558594 35.371094 15.117188 35.480469 C 15.671875 35.59375 16.234375 35.675781 16.800781 35.730469 C 17.367188 35.789062 17.933594 35.816406 18.5 35.816406 C 19.070312 35.816406 19.636719 35.789062 20.203125 35.730469 C 20.769531 35.675781 21.328125 35.59375 21.886719 35.480469 C 22.445312 35.371094 22.996094 35.234375 23.539062 35.066406 C 24.082031 34.902344 24.617188 34.710938 25.140625 34.496094 C 25.667969 34.277344 26.179688 34.035156 26.683594 33.765625 C 27.183594 33.5 27.667969 33.207031 28.140625 32.890625 C 28.613281 32.574219 29.070312 32.238281 29.511719 31.875 C 29.949219 31.515625 30.371094 31.136719 30.773438 30.734375 C 31.171875 30.332031 31.554688 29.910156 31.914062 29.472656 C 32.277344 29.03125 32.613281 28.574219 32.929688 28.101562 C 33.246094 27.632812 33.539062 27.144531 33.804688 26.644531 C 34.074219 26.140625 34.316406 25.628906 34.535156 25.101562 C 34.75 24.578125 34.941406 24.042969 35.105469 23.5 C 35.273438 22.957031 35.410156 22.40625 35.519531 21.847656 C 35.632812 21.289062 35.714844 20.730469 35.769531 20.164062 C 35.828125 19.597656 35.855469 19.03125 35.855469 18.460938 C 35.855469 17.894531 35.828125 17.328125 35.769531 16.761719 C 35.714844 16.195312 35.632812 15.636719 35.519531 15.078125 C 35.410156 14.519531 35.273438 13.96875 35.105469 13.425781 C 34.941406 12.882812 34.75 12.347656 34.53125 11.824219 C 34.316406 11.296875 34.074219 10.785156 33.804688 10.285156 C 33.535156 9.78125 33.246094 9.296875 32.929688 8.824219 C 32.613281 8.351562 32.273438 7.894531 31.914062 7.453125 C 31.554688 7.015625 31.171875 6.59375 30.769531 6.191406 C 30.371094 5.792969 29.949219 5.410156 29.507812 5.050781 C 29.070312 4.6875 28.613281 4.351562 28.140625 4.035156 C 27.667969 3.71875 27.183594 3.425781 26.679688 3.160156 C 26.179688 2.890625 25.667969 2.648438 25.140625 2.433594 C 24.617188 2.214844 24.082031 2.023438 23.539062 1.859375 C 22.996094 1.691406 22.445312 1.554688 21.886719 1.445312 C 21.328125 1.332031 20.769531 1.25 20.203125 1.195312 C 19.636719 1.136719 19.070312 1.109375 18.5 1.109375 Z M 24.542969 18.222656 C 23.914062 18.226562 23.375 18.003906 22.933594 17.558594 L 20.785156 15.414062 L 20.785156 27.023438 C 20.785156 27.328125 20.726562 27.621094 20.609375 27.898438 C 20.496094 28.179688 20.328125 28.425781 20.117188 28.640625 C 19.902344 28.855469 19.65625 29.019531 19.375 29.132812 C 19.09375 29.25 18.804688 29.308594 18.5 29.308594 C 18.199219 29.308594 17.90625 29.25 17.628906 29.132812 C 17.347656 29.019531 17.101562 28.855469 16.886719 28.640625 C 16.671875 28.425781 16.507812 28.179688 16.390625 27.898438 C 16.277344 27.621094 16.21875 27.328125 16.21875 27.023438 L 16.21875 15.414062 L 14.070312 17.558594 C 13.628906 18.003906 13.089844 18.226562 12.460938 18.222656 C 12 18.21875 11.582031 18.089844 11.199219 17.832031 C 10.820312 17.574219 10.542969 17.234375 10.367188 16.8125 C 10.191406 16.386719 10.144531 15.949219 10.234375 15.5 C 10.320312 15.046875 10.523438 14.660156 10.84375 14.332031 L 16.886719 8.289062 C 17.097656 8.074219 17.347656 7.910156 17.625 7.792969 C 17.90625 7.675781 18.199219 7.617188 18.5 7.617188 C 18.804688 7.617188 19.097656 7.675781 19.375 7.792969 C 19.65625 7.910156 19.902344 8.074219 20.117188 8.289062 L 26.160156 14.332031 C 26.480469 14.660156 26.683594 15.046875 26.769531 15.5 C 26.859375 15.949219 26.8125 16.386719 26.636719 16.8125 C 26.460938 17.234375 26.183594 17.574219 25.800781 17.832031 C 25.421875 18.089844 25 18.21875 24.542969 18.222656 Z M 24.542969 18.222656 " fill-opacity="1" fill-rule="nonzero"/></g></svg>